rec1_001.mot
nRows=10
nColumns=19

name rec1_001.mot
datacolumns 19
datarows 10
range 0.0000000000 0.0180004998
endheader
time	ground_force_vx	ground_force_vy	ground_force_vz	ground_force_px	ground_force_py	ground_force_pz	1_ground_force_vx	1_ground_force_vy	1_ground_force_vz	1_ground_force_px	1_ground_force_py	1_ground_force_pz	ground_torque_x	ground_torque_y	ground_torque_z	1_ground_torque_x	1_ground_torque_y	1_ground_torque_z	
        0.0000000000	       -0.5514086140	        6.4139685367	       -0.2724437589	       -0.7000000000	       -0.0180000000	        0.5600000000	       10.2375401288	      573.2577626982	       48.6284813755	       -0.7000000000	       -0.0180000000	       -0.5600000000	        1.7578321851	       -0.9616750470	        4.5439196229	     -238.1145015448	      -43.9655895445	      546.2912099513	
        0.0020003754	       -0.5596260019	        6.4022200356	       -0.2676425496	       -0.7000000000	       -0.0180000000	        0.5600000000	       11.1031582753	      574.4837610496	       48.5252641327	       -0.7000000000	       -0.0180000000	       -0.5600000000	        1.7597913316	       -0.9404194374	        4.5090038821	     -238.5882152959	      -43.4327757587	      546.3165389569	
        0.0040000311	       -0.5665054259	        6.3887130286	       -0.2662026866	       -0.7000000000	       -0.0180000000	        0.5600000000	       11.9625356187	      575.7189313104	       48.4400291547	       -0.7000000000	       -0.0180000000	       -0.5600000000	        1.7617335987	       -0.9112500713	        4.4730262224	     -239.0668024809	      -42.9189645551	      546.3588932201	
        0.0060003666	       -0.5727690744	        6.3738631133	       -0.2682681929	       -0.7000000000	       -0.0180000000	        0.5600000000	       12.8133406440	      576.9624321590	       48.3740447305	       -0.7000000000	       -0.0180000000	       -0.5600000000	        1.7635152063	       -0.8766915871	        4.4374621318	     -239.5500353745	      -42.4262475244	      546.4175849653	
        0.0080001021	       -0.5782854937	        6.3588834803	       -0.2740206767	       -0.7000000000	       -0.0180000000	        0.5600000000	       13.6540556829	      578.2154320410	       48.3284222549	       -0.7000000000	       -0.0180000000	       -0.5600000000	        1.7652482261	       -0.8390402083	        4.4051676410	     -240.0384824260	      -41.9563665053	      546.4937363836	
        0.0100003977	       -0.5823778189	        6.3450288402	       -0.2834547151	       -0.7000000000	       -0.0180000000	        0.5600000000	       14.4837379508	      579.4810530691	       48.3038681643	       -0.7000000000	       -0.0180000000	       -0.5600000000	        1.7671182704	       -0.7997932726	        4.3788011767	     -240.5334181084	      -41.5105814559	      546.5901015017	
        0.0120000932	       -0.5843713847	        6.3329263512	       -0.2961119043	       -0.7000000000	       -0.0180000000	        0.5600000000	       15.3017399237	      580.7640152336	       48.3005251069	       -0.7000000000	       -0.0180000000	       -0.5600000000	        1.7691940653	       -0.7603292567	        4.3595025851	     -241.0367135120	      -41.0895437287	      546.7104522132	
        0.0140004287	       -0.5839919063	        6.3225825412	       -0.3110394934	       -0.7000000000	       -0.0180000000	        0.5600000000	       16.1076684348	      582.0701117451	       48.3180154087	       -0.7000000000	       -0.0180000000	       -0.5600000000	        1.7714179833	       -0.7224745105	        4.3468337050	     -241.5506879942	      -40.6932161895	      546.8588533212	
        0.0160001242	       -0.5814208184	        6.3138312127	       -0.3270884399	       -0.7000000000	       -0.0180000000	        0.5600000000	       16.9016283291	      583.4057550323	       48.3556635766	       -0.7000000000	       -0.0180000000	       -0.5600000000	        1.7737324222	       -0.6881706122	        4.3396765334	     -242.0779650424	      -40.3208934846	      547.0392539788	
        0.0180004998	       -0.5770408758	        6.3067103869	       -0.3433596645	       -0.7000000000	       -0.0180000000	        0.5600000000	       17.6845269742	      584.7778432579	       48.4126890472	       -0.7000000000	       -0.0180000000	       -0.5600000000	        1.7761796946	       -0.6587330345	        4.3371783488	     -242.6214101321	      -39.9712741525	      547.2556230004	
